<?xml version="1.0" standalone="no"?>
<!DOCTYPE svg PUBLIC "-//W3C//DTD SVG 20010904//EN"
 "http://www.w3.org/TR/2001/REC-SVG-20010904/DTD/svg10.dtd">
<svg version="1.0" xmlns="http://www.w3.org/2000/svg"
 width="481.000000pt" height="450.000000pt" viewBox="0 0 481.000000 450.000000"
 preserveAspectRatio="xMidYMid meet">

<g transform="translate(0.000000,450.000000) scale(0.100000,-0.100000)"
fill="#000000" stroke="none">
<path d="M1305 4404 c-115 -18 -232 -73 -298 -139 -43 -44 -108 -158 -106
-187 0 -7 4 -4 9 7 8 18 9 18 9 2 1 -10 6 -15 11 -12 6 3 10 -2 10 -12 0 -11
13 1 35 32 82 118 163 177 272 200 89 19 203 4 203 -26 0 -5 -9 -9 -19 -9 -67
0 -234 -81 -290 -141 -38 -41 -30 -48 54 -48 29 0 201 -2 652 -10 399 -6 403
-6 397 14 -3 12 -2 15 3 9 4 -6 19 -14 33 -18 24 -7 24 -6 -4 16 -62 48 -236
152 -351 209 -162 80 -277 109 -455 114 -74 2 -148 1 -165 -1z"/>
<path d="M3338 4395 c-115 -19 -197 -49 -362 -132 -181 -91 -285 -130 -382
-144 l-73 -11 32 -33 c19 -19 33 -28 35 -21 2 10 16 11 52 5 28 -4 54 -10 59
-14 5 -3 12 -1 15 4 3 4 23 7 43 5 21 -2 308 -5 637 -7 469 -1 600 -5 604 -14
8 -26 29 -13 25 15 -2 18 -1 21 4 11 6 -14 10 -14 20 -4 23 26 -53 166 -127
232 -44 40 -165 93 -245 108 -92 18 -231 18 -337 0z"/>
<path d="M1089 4064 c-11 -14 -11 -16 0 -10 8 5 17 3 22 -5 5 -8 9 -9 9 -4 0
6 -4 16 -9 23 -6 10 -11 9 -22 -4z"/>
<path d="M1339 2706 c-116 -21 -180 -42 -280 -93 -150 -77 -269 -203 -358
-380 -17 -34 -31 -65 -31 -68 0 -4 27 34 60 84 105 157 262 279 418 325 56 16
61 6 9 -21 -43 -21 -114 -80 -121 -100 -10 -26 133 -477 238 -748 116 -298
249 -474 430 -568 56 -29 69 -32 156 -32 85 0 100 3 141 27 49 29 93 84 115
145 17 48 17 135 2 291 -10 107 -10 137 4 219 29 168 99 278 216 335 56 28 78
33 137 33 60 0 81 -5 138 -33 119 -59 184 -165 215 -349 13 -81 14 -111 2
-237 -15 -170 -9 -241 28 -309 50 -93 129 -132 251 -125 121 7 232 75 348 211
100 118 176 270 276 553 l36 101 -87 6 c-134 10 -306 47 -289 63 2 3 61 0 130
-7 222 -22 433 12 589 93 92 48 196 151 245 244 48 92 50 115 4 47 -54 -79
-117 -134 -206 -177 -104 -51 -182 -67 -341 -73 -321 -12 -652 66 -1194 282
-380 151 -553 206 -800 251 -119 21 -385 27 -481 10z"/>
<path d="M490 2033 c-30 -13 -56 -26 -58 -28 -2 -1 8 -29 22 -61 13 -33 21
-62 18 -65 -4 -4 -87 -42 -184 -85 -98 -43 -178 -84 -178 -90 0 -6 12 -37 26
-68 31 -67 8 -70 232 30 119 54 168 72 177 64 7 -6 20 -30 30 -55 9 -25 23
-45 31 -45 27 0 114 42 114 55 0 10 -93 224 -150 348 -16 32 -11 32 -80 0z"/>
<path d="M4056 1890 c-36 -83 -66 -156 -66 -163 0 -10 475 -227 497 -227 8 0
143 300 143 318 0 9 -119 67 -125 60 -1 -1 -19 -42 -40 -90 -38 -91 -52 -102
-88 -75 -16 11 -15 17 12 73 50 105 50 101 -14 129 -30 14 -60 25 -66 25 -5 0
-25 -33 -43 -74 -19 -40 -38 -76 -43 -79 -6 -4 -18 0 -29 7 -17 13 -17 17 19
97 20 46 37 88 37 92 0 8 -102 57 -119 57 -4 0 -38 -68 -75 -150z"/>
<path d="M555 1445 c-115 -90 -211 -168 -213 -173 -3 -9 196 -268 211 -274 11
-4 106 64 107 76 0 5 -25 41 -55 81 -30 39 -55 76 -55 82 0 5 8 17 18 26 22
20 32 14 87 -58 22 -27 42 -54 47 -59 5 -7 118 68 118 79 0 1 -22 31 -50 65
-52 65 -61 94 -34 104 21 8 35 -4 91 -80 26 -35 50 -64 54 -64 3 0 29 18 58
41 l51 41 -19 26 c-42 59 -193 247 -199 249 -4 1 -101 -72 -217 -162z"/>
<path d="M3874 1521 c-29 -13 -66 -49 -127 -124 -48 -58 -87 -107 -87 -110 0
-3 46 -42 103 -88 56 -46 150 -123 208 -171 59 -48 111 -88 115 -88 5 1 29 26
53 56 l45 56 -35 26 c-73 58 -92 79 -86 95 8 20 35 21 135 3 l73 -13 49 56
c27 31 50 61 50 67 0 7 -41 19 -99 29 -55 10 -103 21 -108 24 -5 3 -15 26 -22
51 -35 122 -156 181 -267 131z m107 -131 c10 -6 19 -20 19 -32 0 -24 -47 -98
-62 -98 -15 0 -68 43 -68 55 0 15 65 85 80 85 6 0 20 -5 31 -10z"/>
<path d="M915 1030 c-88 -115 -161 -213 -163 -219 -2 -7 217 -185 264 -214 9
-5 27 10 54 44 22 28 40 54 40 58 0 4 -34 32 -75 62 -77 56 -88 75 -57 102 17
16 22 14 83 -33 35 -27 69 -50 75 -50 11 0 84 87 84 100 0 3 -29 30 -65 58
-66 54 -76 71 -51 91 13 11 29 1 162 -101 14 -11 101 99 88 111 -32 30 -264
201 -271 201 -5 0 -81 -94 -168 -210z"/>
<path d="M3365 1069 c-70 -46 -69 -23 -16 -249 22 -91 49 -209 61 -263 12 -53
28 -97 34 -97 17 1 121 75 120 86 -1 5 -5 27 -9 50 l-6 41 64 41 c35 23 69 42
76 42 7 0 28 -12 46 -26 l34 -26 61 38 c34 21 63 41 66 45 4 6 -377 298 -446
341 -24 15 -28 14 -85 -23z m173 -225 c28 -19 28 -30 1 -45 -25 -13 -39 1 -39
39 0 26 8 27 38 6z"/>
<path d="M1424 918 c-10 -29 -21 -56 -22 -60 -2 -5 21 -19 51 -33 30 -13 57
-28 60 -32 3 -5 -28 -91 -70 -192 -41 -101 -71 -187 -66 -191 12 -11 123 -53
128 -49 2 2 35 83 74 179 39 96 76 179 81 184 9 9 33 3 111 -29 13 -5 22 7 42
57 14 35 22 66 19 69 -12 11 -357 149 -373 149 -9 0 -23 -21 -35 -52z"/>
<path d="M2869 839 c-131 -20 -226 -123 -237 -255 -17 -211 202 -370 393 -285
59 26 119 81 146 133 33 64 28 73 -47 92 -37 9 -68 16 -69 14 -1 -2 -10 -19
-19 -38 -22 -47 -62 -70 -124 -70 -104 0 -166 109 -112 197 38 63 140 85 194
42 l27 -21 47 43 c58 53 59 55 36 81 -48 52 -148 81 -235 67z"/>
<path d="M1936 769 c-3 -13 -12 -109 -21 -214 -8 -104 -18 -217 -21 -251 -6
-58 -5 -61 17 -67 13 -4 47 -7 75 -7 l52 0 7 83 c9 119 8 117 64 117 27 0 69
-3 95 -6 l47 -7 -7 -100 c-8 -116 -7 -117 78 -117 52 0 58 2 62 22 7 29 47
520 44 524 -2 1 -35 5 -74 9 l-72 7 -8 -93 -9 -94 -89 2 c-48 0 -92 5 -97 10
-5 5 -5 45 0 93 4 47 6 88 2 92 -3 4 -36 10 -73 14 -65 6 -67 6 -72 -17z"/>
</g>
</svg>
